
<svg xmlns="http://www.w3.org/2000/svg" data-name="Layer 1" width="769.25" height="544.5" viewBox="0 0 769.25 544.5" xmlns:xlink="http://www.w3.org/1999/xlink"><path d="M463.21,589.44H280.07a49.93,49.93,0,0,1-49.93-49.93V194.94a49.93,49.93,0,0,1,49.93-49.93H604.29a49.93,49.93,0,0,1,49.93,49.93V386.38a7.69,7.69,0,0,1-15.38,0V194.94a34.55,34.55,0,0,0-34.55-34.55H280.07a34.55,34.55,0,0,0-34.55,34.55V539.51a34.55,34.55,0,0,0,34.55,34.55H463.21a7.69,7.69,0,0,1,0,15.38Z" transform="translate(-215.38 -177.75)" fill="#3b82f6"/><path d="M459.12,513.26h-103a13,13,0,0,1,0-26h103a13,13,0,0,1,0,26Z" transform="translate(-215.38 -177.75)" fill="#3b82f6"/><path d="M503.69,291.25H311.53a13,13,0,0,1,0-26H503.69a13,13,0,0,1,0,26Z" transform="translate(-215.38 -177.75)" fill="#ccc"/><path d="M503.69,351.88H311.53a13,13,0,0,1,0-26H503.69a13,13,0,0,1,0,26Z" transform="translate(-215.38 -177.75)" fill="#ccc"/><path d="M503.69,414.92H311.53a13,13,0,0,1,0-26H503.69a13,13,0,0,1,0,26Z" transform="translate(-215.38 -177.75)" fill="#ccc"/><path d="M503.69,477.35H311.53a13,13,0,0,1,0-26H503.69a13,13,0,0,1,0,26Z" transform="translate(-215.38 -177.75)" fill="#ccc"/><path d="M597.57,455.92H537.59a13,13,0,0,1,0-26h59.98a13,13,0,0,1,0,26Z" transform="translate(-215.38 -177.75)" fill="#3b82f6"/><path d="M597.57,342.92H537.59a13,13,0,0,1,0-26h59.98a13,13,0,0,1,0,26Z" transform="translate(-215.38 -177.75)" fill="#3b82f6"/><path d="M597.57,236.92H537.59a13,13,0,0,1,0-26h59.98a13,13,0,0,1,0,26Z" transform="translate(-215.38 -177.75)" fill="#3b82f6"/><path d="M616.56,589.44H579.77A112.22,112.22,0,0,1,467.71,477.38V282H729.63V477.38A112.22,112.22,0,0,1,616.56,589.44Z" transform="translate(-215.38 -177.75)" fill="#e6e6e6"/><path d="M747.31,499.88a112.31,112.31,0,0,1-111.28,89.56h-36.79a112.18,112.18,0,0,1-107.61-79.83c-.49,2.69-1.56,7.51-2.81,13.03l-7.28,34.56c-1.22,5.78,3.12,11.22,9.03,11.33l177.02,3.52c5.67.11,9.73-4.95,8.78-10.56l-9.03-53.33c-.42-2.52-.7-5.26-.09-8.28Z" transform="translate(-215.38 -177.75)" fill="#2f2e41"/><path d="M745.22,520.97a.65.65,0,0,1-.34-1.16l12.04-12.2a.65.65,0,1,1,.93.91l-12.04,12.2a.65.65,0,0,1-.59.25Z" transform="translate(-215.38 -177.75)" fill="#2f2e41"/><path d="M740.38,540.01a.65.65,0,0,1-.41-1.14l19.63-16.27a.65.65,0,0,1,.82,1l-19.63,16.27a.65.65,0,0,1-.41.14Z" transform="translate(-215.38 -177.75)" fill="#2f2e41"/><path d="M598.62,392.95a31.06,31.06,0,1,1,31.06-31.06,31.09,31.09,0,0,1-31.06,31.06Z" transform="translate(-215.38 -177.75)" fill="#3b82f6"/><path d="M596.16,371.06a5.82,5.82,0,0,1-5.82-5.82v-7.06a5.82,5.82,0,0,1,11.65,0v7.06a5.82,5.82,0,0,1-5.82,5.82Z" transform="translate(-215.38 -177.75)" fill="#fff"/><path d="M596.16,387.49a5.82,5.82,0,1,1,5.82-5.82,5.83,5.83,0,0,1-5.82,5.82Z" transform="translate(-215.38 -177.75)" fill="#fff"/><rect x="315.25" y="266.06" width="126.87" height="164.11" rx="17.17" fill="#3b82f6"/></svg>
